<svg xmlns="http://www.w3.org/2000/svg" xmlns:xlink="http://www.w3.org/1999/xlink" width="300" height="240" viewBox="0 0 300 240">
  <defs>
    <clipPath id="clip-path">
      <rect id="_300x240" data-name="300x240" width="300" height="240" transform="translate(-71 -63)" fill="#fff" stroke="#707070" stroke-width="1"/>
    </clipPath>
    <clipPath id="clip-path-2">
      <rect id="사각형_26" data-name="사각형 26" width="240" height="173.079" fill="none"/>
    </clipPath>
  </defs>
  <g id="harumi" transform="translate(71 63)">
    <g id="마스크_그룹_11" data-name="마스크 그룹 11" clip-path="url(#clip-path)">
      <g id="그룹_32" data-name="그룹 32" transform="translate(-41 -30)" clip-path="url(#clip-path-2)">
        <path id="패스_158" data-name="패스 158" d="M227.153,173.079H12.848A12.863,12.863,0,0,1,0,160.232V120a120,120,0,1,1,240,0v40.23a12.863,12.863,0,0,1-12.847,12.848M120,5.634A114.5,114.5,0,0,0,5.634,120v40.23a7.22,7.22,0,0,0,7.213,7.213h214.3a7.22,7.22,0,0,0,7.213-7.213V120A114.5,114.5,0,0,0,120,5.634" transform="translate(0 0)"/>
        <path id="패스_159" data-name="패스 159" d="M16.283,67.871h13.7V60.017h9.547v7.853H52.158q1.847,0,1.847,2.54,0,5.158-3.464,5.158H16.283ZM34.835,79.342a17.77,17.77,0,0,1,7.006,1.308,15.764,15.764,0,0,1,5.235,3.541A16.753,16.753,0,0,1,50.31,89.58a18.489,18.489,0,0,1,1.153,6.545,18.169,18.169,0,0,1-1.153,6.5,16.8,16.8,0,0,1-3.234,5.351,15.181,15.181,0,0,1-5.235,3.62,17.77,17.77,0,0,1-7.006,1.308,18.488,18.488,0,0,1-6.929-1.385,15.629,15.629,0,0,1-8.546-8.894,18.17,18.17,0,0,1-1.155-6.5,18.419,18.419,0,0,1,1.155-6.584,16.179,16.179,0,0,1,3.309-5.35,15.755,15.755,0,0,1,5.237-3.541,17.557,17.557,0,0,1,6.929-1.308m0,25.4a5.851,5.851,0,0,0,2.772-.693,7.46,7.46,0,0,0,2.308-1.924,8.977,8.977,0,0,0,1.542-2.849,11.1,11.1,0,0,0,0-6.814,8.992,8.992,0,0,0-1.463-2.733,8.029,8.029,0,0,0-2.311-1.847,6,6,0,0,0-2.847-.694,6.312,6.312,0,0,0-5.16,2.5,9.615,9.615,0,0,0-2,6.2,10.7,10.7,0,0,0,.536,3.386,8.977,8.977,0,0,0,1.542,2.849,6.654,6.654,0,0,0,2.233,1.924,5.984,5.984,0,0,0,2.849.693m35.182,14.32q0,9.623-5.622,9.622H63.088a2.213,2.213,0,0,1-2.541-2.463V59.632h9.47V80.8H78.87q1.771,0,1.771,2.62,0,5.542-3.464,5.542H70.017Z" transform="translate(8.233 30.152)"/>
        <path id="패스_160" data-name="패스 160" d="M124.319,97.917a5.5,5.5,0,0,1,.23,4.116,4.634,4.634,0,0,1-3,2.813,28.994,28.994,0,0,1-4.387,1.5,63.3,63.3,0,0,1-6.775,1.424q-3.925.691-8.547,1.23-2.385.233-4.848.385v9.778q0,9.623-5.622,9.622H89.753q-2.543,0-2.542-2.462V109.31q-2.08-.077-4.079-.309-4.7-.458-8.663-1.155t-7.043-1.537a29.147,29.147,0,0,1-4.7-1.463,4.5,4.5,0,0,1-2.809-2.772,5.079,5.079,0,0,1,.348-4.157,2.948,2.948,0,0,1,1.616-1.233,6.677,6.677,0,0,1,3,.078,22.156,22.156,0,0,1,3.08.769q.921.309,3.081.848t5.312,1.077q3.076.54,7.2.923t8.969.387a84.888,84.888,0,0,0,9.121-.425,62.91,62.91,0,0,0,6.661-1.037q2.694-.54,4.464-1.078t2.772-.849A22.225,22.225,0,0,1,117.7,96.8a16.538,16.538,0,0,1,2.54-.346,8.855,8.855,0,0,1,2.347.154,2.544,2.544,0,0,1,1.733,1.31M68.274,73.127H105q1.31,0,1.308-2.308V68.278H68.274V60.5h43.573q4.081,0,4.08,3.848v4q0,6.159-1.5,9.353a4.958,4.958,0,0,1-4.735,3.195H77.9v3.309a1.565,1.565,0,0,0,1.771,1.772h35.876q1.847,0,1.846,2.386,0,5.312-3.464,5.312H77.282q-4.544,0-6.775-1.771t-2.233-6Z" transform="translate(30.147 30.591)"/>
        <path id="패스_161" data-name="패스 161" d="M140.656,95.356q0,13.318-6.929,13.316H115.4q-8.006,0-8.005-7.774V63.1h29.254q4,0,4,3.85Zm-11.7,5.542q2.082,0,2.078-4.159V70.872H116.944V98.432q0,2.469,2.618,2.466Zm31.874,18.168q0,9.623-5.62,9.622h-1.464a2.214,2.214,0,0,1-2.542-2.463V59.632h9.625Z" transform="translate(54.303 30.152)"/>
        <path id="패스_162" data-name="패스 162" d="M24.882,44.715a2.758,2.758,0,1,1-2.758-2.757,2.757,2.757,0,0,1,2.758,2.757" transform="translate(9.792 21.215)"/>
        <path id="패스_163" data-name="패스 163" d="M143.2,45.43a2.758,2.758,0,1,1-2.757-2.757A2.756,2.756,0,0,1,143.2,45.43" transform="translate(69.617 21.577)"/>
        <path id="패스_164" data-name="패스 164" d="M28.161,31.155A9.341,9.341,0,0,1,30.4,29.5a6.979,6.979,0,0,1,2.236-.73,5.006,5.006,0,0,1,2.028.2A4,4,0,0,1,36.328,30a4.389,4.389,0,0,1,1.028,1.694,4.578,4.578,0,0,1,.187,2.04,6.282,6.282,0,0,1-.717,2.252,9.92,9.92,0,0,1-3.957,3.892,6.783,6.783,0,0,1-2.224.721,4.691,4.691,0,0,1-2.046-.135,3.786,3.786,0,0,1-1.643-1,4.56,4.56,0,0,1-1.295-3.784,6.5,6.5,0,0,1,.741-2.242,9.22,9.22,0,0,1,1.759-2.286m5.351,5.508a5,5,0,0,0,.927-1.221,4.536,4.536,0,0,0,.479-1.317,2.817,2.817,0,0,0,.006-1.208,1.986,1.986,0,0,0-.509-.956,1.947,1.947,0,0,0-.953-.539,3.16,3.16,0,0,0-1.2-.042,4.683,4.683,0,0,0-1.3.465,5.479,5.479,0,0,0-1.256.924,5.612,5.612,0,0,0-.983,1.263,4.259,4.259,0,0,0-.483,1.277,2.87,2.87,0,0,0,.033,1.183,2.018,2.018,0,0,0,.53.949,2.083,2.083,0,0,0,.929.545,2.6,2.6,0,0,0,1.176.053,4.2,4.2,0,0,0,1.31-.429,5.146,5.146,0,0,0,1.293-.947m10.363-2.417a1.677,1.677,0,0,1,.888.821,1.333,1.333,0,0,1-.027,1.183,8.471,8.471,0,0,1-.58,1.179,17.86,17.86,0,0,1-1.075,1.632c-.435.616-.924,1.256-1.474,1.93a23.967,23.967,0,0,1-1.786,1.948,25.636,25.636,0,0,1-1.99,1.756c-.7.551-1.355,1.039-1.98,1.457s-1.215.79-1.745,1.089a8.365,8.365,0,0,1-1.247.6,1.3,1.3,0,0,1-1.137-.027,1.549,1.549,0,0,1-.781-.94.852.852,0,0,1,.074-.58,1.813,1.813,0,0,1,.622-.575,5.992,5.992,0,0,1,.781-.446,24.172,24.172,0,0,0,2.322-1.415,17.754,17.754,0,0,0,2.239-1.745l-2.429-2.49,1.911-1.865,2.433,2.487q.51-.533.9-1.006a18.2,18.2,0,0,0,1.161-1.561c.27-.42.483-.784.649-1.09a7.746,7.746,0,0,0,.387-.727,5.638,5.638,0,0,1,.318-.545,4.608,4.608,0,0,1,.441-.572,2.394,2.394,0,0,1,.506-.432.725.725,0,0,1,.619-.068" transform="translate(12.959 14.534)"/>
        <path id="패스_165" data-name="패스 165" d="M34.056,25.6l2.251-1.519,1.847,2.733a.625.625,0,0,0,.98.208l8.35-5.642c.276-.187.551-.08.821.318q.87,1.292.08,1.829l-8.748,5.91a2.794,2.794,0,0,1-1.838.6,2.185,2.185,0,0,1-1.492-1.1Zm2.2,7.837,14.995-10.13c.289-.2.568-.092.837.306q.822,1.217.012,1.765L37.483,35.257Zm6.075,4.181,8.406-5.679q.325-.221-.044-.763l-.263-.391-8.73,5.9-1.2-1.777,10.029-6.772a1,1,0,0,1,1.569.3l.328.488a8.563,8.563,0,0,1,.927,1.664,2.727,2.727,0,0,1,.224,1.126,1.3,1.3,0,0,1-.245.766,2.392,2.392,0,0,1-.548.506L45.69,37.779l.34.5a.455.455,0,0,0,.708.154l8.242-5.572c.277-.187.536-.1.781.263q.833,1.235.026,1.783l-8.444,5.7a2.8,2.8,0,0,1-1.837.6,2.212,2.212,0,0,1-1.492-1.107Z" transform="translate(17.22 10.767)"/>
        <path id="패스_166" data-name="패스 166" d="M46.1,26.628l16.563-7.29c.318-.14.572.009.768.45.4.911.3,1.5-.294,1.759L47,28.653ZM51.22,15.171a13.162,13.162,0,0,1,2.728-.891,7.87,7.87,0,0,1,2.292-.158,4.061,4.061,0,0,1,1.728.522,2.467,2.467,0,0,1,1.016,1.131,2.6,2.6,0,0,1,.172,1.492A3.9,3.9,0,0,1,58.44,18.9a7.994,7.994,0,0,1-1.655,1.631,12.867,12.867,0,0,1-2.561,1.46,12.631,12.631,0,0,1-2.713.873,8.265,8.265,0,0,1-2.3.148,4.241,4.241,0,0,1-1.747-.491,2.273,2.273,0,0,1-1.01-1.084,2.64,2.64,0,0,1-.184-1.546,3.9,3.9,0,0,1,.741-1.661,7.407,7.407,0,0,1,1.643-1.611,13.261,13.261,0,0,1,2.564-1.45m2.1,4.776a10.927,10.927,0,0,0,1.447-.759,7.07,7.07,0,0,0,1.087-.825,2.976,2.976,0,0,0,.622-.793A.69.69,0,0,0,56,16.495,2.966,2.966,0,0,0,55,16.423a6.984,6.984,0,0,0-1.339.241,11.861,11.861,0,0,0-1.537.554A11.736,11.736,0,0,0,50.634,18a6.59,6.59,0,0,0-1.066.815,2.7,2.7,0,0,0-.6.784.722.722,0,0,0,.476,1.075,2.644,2.644,0,0,0,.986.083,6.524,6.524,0,0,0,1.32-.235,11.343,11.343,0,0,0,1.573-.571M51.253,31.64l9.288-4.086c.238-.107.273-.352.1-.738l-.181-.414-9.644,4.246-.864-1.963,11.074-4.874a1.008,1.008,0,0,1,1.5.6l.217.5a8.58,8.58,0,0,1,.607,1.783,2.933,2.933,0,0,1,.041,1.14A1.257,1.257,0,0,1,63,28.54a2.521,2.521,0,0,1-.64.408l-7.832,3.446.236.539a.452.452,0,0,0,.667.273l9.1-4.006c.306-.136.545,0,.723.4.4.906.3,1.5-.3,1.756L55.642,35.46a2.785,2.785,0,0,1-1.914.26,2.183,2.183,0,0,1-1.271-1.351Z" transform="translate(23.311 7.127)"/>
        <path id="패스_167" data-name="패스 167" d="M71.639,15.967a10.9,10.9,0,0,1,.22,2.016,3.869,3.869,0,0,1-.193,1.335,1.647,1.647,0,0,1-.548.781,2.071,2.071,0,0,1-.851.351l-4.871.911a2.832,2.832,0,0,1-1.956-.175,2.219,2.219,0,0,1-.918-1.608L61.2,12.472l8.329-1.554a1.016,1.016,0,0,1,1.342.918Zm-2.9,2.451c.4-.074.521-.512.373-1.311l-.685-3.665-4.163.778.775,4.151a.635.635,0,0,0,.836.58Zm1.679,3.43,2.733-.512.154.825a3.737,3.737,0,0,0,.673,1.537,4.837,4.837,0,0,0,1.342,1.211,8.179,8.179,0,0,0,1.871.9,14.123,14.123,0,0,0,2.295.572.684.684,0,0,1,.619.6,1.57,1.57,0,0,1-.155,1.164,1.012,1.012,0,0,1-.613.518.391.391,0,0,1-.132,0,.381.381,0,0,0-.131,0,12.84,12.84,0,0,1-6.418-2.523,13.749,13.749,0,0,1-2.076,2.478,15.986,15.986,0,0,1-3.02,2.171.322.322,0,0,1-.154.077c-.048.009-.095.018-.137.024a.963.963,0,0,1-.723-.267A1.485,1.485,0,0,1,66,29.66a.854.854,0,0,1,.491-.92A11.681,11.681,0,0,0,68.37,27.4a8.2,8.2,0,0,0,1.363-1.516A5.074,5.074,0,0,0,70.5,24.3a3.589,3.589,0,0,0,.071-1.634Zm6.991-3.4q.547,2.931-1.01,3.222l-.387.071a.634.634,0,0,1-.836-.575l-2.188-11.7,2.65-.494.778,4.172,2.414-.45c.343-.065.557.142.646.616q.285,1.531-.655,1.706l-1.986.37Z" transform="translate(30.942 4.537)"/>
        <path id="패스_168" data-name="패스 168" d="M79.588,8.954a5.644,5.644,0,0,1,2.171.387,4.542,4.542,0,0,1,2.62,2.668,5.739,5.739,0,0,1,.012,3.927,4.648,4.648,0,0,1-.992,1.608,4.5,4.5,0,0,1-1.606,1.1,5.673,5.673,0,0,1-2.168.4,5.51,5.51,0,0,1-2.141-.385,4.581,4.581,0,0,1-1.6-1.092,4.451,4.451,0,0,1-1.027-1.6,5.724,5.724,0,0,1-.015-3.93,4.492,4.492,0,0,1,1.018-1.608A4.654,4.654,0,0,1,77.45,9.356a5.429,5.429,0,0,1,2.138-.4m5.517,11.5,2.671-.009,0,.79a6.032,6.032,0,0,0,.793,3.1,7.914,7.914,0,0,0,2.007,2.286.767.767,0,0,1,.306.563,1.008,1.008,0,0,1-.151.542,2.194,2.194,0,0,1-.367.453,1.9,1.9,0,0,1-.456.285,1.046,1.046,0,0,1-.388.1,1.2,1.2,0,0,1-.687-.279,4.917,4.917,0,0,1-.775-.732q-.413-.449-.827-1c-.279-.367-.539-.732-.787-1.093-.23.364-.491.732-.778,1.111s-.575.723-.864,1.042a8.1,8.1,0,0,1-.836.735,1.137,1.137,0,0,1-.595.285,1.177,1.177,0,0,1-.652-.291,6.029,6.029,0,0,1-.809-.741,12.075,12.075,0,0,1-.87-1.015c-.294-.373-.554-.744-.787-1.1-.2.33-.441.676-.714,1.04s-.548.7-.821,1.018a6.77,6.77,0,0,1-.834.751,1.245,1.245,0,0,1-.682.294,1.019,1.019,0,0,1-.435-.11,1.65,1.65,0,0,1-.438-.292,2.328,2.328,0,0,1-.337-.45,1.039,1.039,0,0,1-.145-.521.562.562,0,0,1,.087-.315,1.793,1.793,0,0,1,.282-.319,6.818,6.818,0,0,0,1.957-2.289,6.339,6.339,0,0,0,.694-3.026v-.79l2.7-.012v.79a6.542,6.542,0,0,0,.456,2.426,5.7,5.7,0,0,0,1.32,1.974,5.781,5.781,0,0,0,1.351-2.016,6.487,6.487,0,0,0,.414-2.4ZM79.615,16.7a2.286,2.286,0,0,0,1.756-.819A3.189,3.189,0,0,0,81.892,15a2.934,2.934,0,0,0,.19-1.086,2.869,2.869,0,0,0-.2-1.063,3.181,3.181,0,0,0-.524-.878,2.515,2.515,0,0,0-.784-.574,2.325,2.325,0,0,0-1.954.009,2.423,2.423,0,0,0-.781.58,2.7,2.7,0,0,0-.53.881,3.05,3.05,0,0,0-.181,1.06,2.987,2.987,0,0,0,.2,1.086,3.1,3.1,0,0,0,.527.879,2.332,2.332,0,0,0,.784.6,2.236,2.236,0,0,0,.977.209m10.21.03q.009,2.825-1.575,2.831h-.37a.636.636,0,0,1-.72-.72l-.036-10.3,2.671-.009Z" transform="translate(37.669 4.314)"/>
        <path id="패스_169" data-name="패스 169" d="M86.148,17.915l17.828,3.1c.343.062.473.343.384.845q-.257,1.5-1.223,1.323L85.757,20.16ZM88.1,22.4l2.653.462-.539,3.115a.625.625,0,0,0,.56.83l9.525,1.655q.492.088.367.8Q100.4,30.8,99.44,30.63L89.467,28.9a2.731,2.731,0,0,1-1.728-.84,2.2,2.2,0,0,1-.3-1.828ZM90.29,9.053l2.674.462-.744,4.3a.628.628,0,0,0,.56.833l9.931,1.724c.328.059.45.325.367.8q-.266,1.54-1.206,1.373l-10.36-1.8a2.9,2.9,0,0,1-1.762-.846,2.169,2.169,0,0,1-.331-1.835Z" transform="translate(43.361 4.577)"/>
        <path id="패스_170" data-name="패스 170" d="M108.837,19.3a4.843,4.843,0,0,1,1.67,1.128,4.4,4.4,0,0,1,.953,1.531,4.92,4.92,0,0,1,.22,1.814,5.8,5.8,0,0,1-1.494,3.522,5.016,5.016,0,0,1-1.456,1.089,4.265,4.265,0,0,1-1.774.4,4.792,4.792,0,0,1-1.969-.42,5,5,0,0,1-1.641-1.135,4.287,4.287,0,0,1-.944-1.557,4.523,4.523,0,0,1-.254-1.789A5.555,5.555,0,0,1,102.591,22a5.624,5.624,0,0,1,1.057-1.647,4.756,4.756,0,0,1,1.474-1.081,4.424,4.424,0,0,1,1.763-.376,4.77,4.77,0,0,1,1.951.41m-3.5-5.146,3.559,1.513.9-2.12,2.478,1.054-.9,2.12,3.281,1.394c.319.134.382.432.187.888-.391.927-.891,1.265-1.489,1.01l-8.9-3.779Zm.589,12a1.61,1.61,0,0,0,.8.12,2.055,2.055,0,0,0,.821-.267,2.569,2.569,0,0,0,.726-.6,3.349,3.349,0,0,0,.784-1.841,2.77,2.77,0,0,0-.068-.9,2.251,2.251,0,0,0-.388-.753,1.6,1.6,0,0,0-.659-.5,1.749,1.749,0,0,0-1.626.108,2.878,2.878,0,0,0-1.232,1.451,3.3,3.3,0,0,0-.248.974,2.634,2.634,0,0,0,.074.937,1.887,1.887,0,0,0,.358.769,1.646,1.646,0,0,0,.659.5m7.5,7.751q-1.1,2.595-2.564,1.975l-.337-.143a.637.637,0,0,1-.379-.944l7.64-17.982,2.46,1.045-2.429,5.715,2.3.977c.306.129.357.432.158.9q-.637,1.5-1.537,1.114l-1.859-.79Z" transform="translate(51.645 6.852)"/>
        <path id="패스_171" data-name="패스 171" d="M128.062,36.633a1.658,1.658,0,0,1-.61,1.043,1.323,1.323,0,0,1-1.161.224,7.833,7.833,0,0,1-1.278-.313,17.313,17.313,0,0,1-1.825-.7c-.693-.3-1.427-.635-2.212-1.024-.4-.212-.8-.429-1.207-.658l-1.576,2.4q-1.549,2.356-2.877,1.485l-.379-.251a.637.637,0,0,1-.2-1l2.743-4.169c-.318-.227-.622-.462-.912-.708-.69-.56-1.305-1.1-1.853-1.626s-1.019-1.015-1.412-1.471a8.031,8.031,0,0,1-.873-1.087,1.3,1.3,0,0,1-.214-1.114,1.545,1.545,0,0,1,.75-.965.837.837,0,0,1,.583-.05,1.814,1.814,0,0,1,.7.485,6.042,6.042,0,0,1,.6.664q.169.221.587.687t1.078,1.087q.639.612,1.551,1.345t2.052,1.486a23.3,23.3,0,0,0,2.218,1.311,17.531,17.531,0,0,0,1.736.778c.482.19.893.333,1.226.428s.6.169.79.224a4.607,4.607,0,0,1,.6.193,4.106,4.106,0,0,1,.655.309,2.317,2.317,0,0,1,.53.4.721.721,0,0,1,.2.589M118.85,21.864l8.653,5.694c.209.139.435.015.684-.361l.408-.622-8.963-5.9,1.253-1.906,10.271,6.759a1.007,1.007,0,0,1,.342,1.576l-.646.98a6.916,6.916,0,0,1-1.862,2.063,1.4,1.4,0,0,1-1.632.045l-7.494-4.932-.533.813a.449.449,0,0,0,.132.708l8.454,5.565c.291.19.307.482.053.873q-.861,1.3-1.676.763L117.658,28.3a2.953,2.953,0,0,1-1.313-1.486,2.164,2.164,0,0,1,.444-1.817Z" transform="translate(56.715 9.491)"/>
        <path id="패스_172" data-name="패스 172" d="M135.218,47.088a1.672,1.672,0,0,1-.783.918,1.335,1.335,0,0,1-1.183.015,7.8,7.8,0,0,1-1.2-.536,16.551,16.551,0,0,1-1.673-1.013q-.946-.617-1.981-1.4a23.122,23.122,0,0,1-2.016-1.712,25.365,25.365,0,0,1-1.826-1.924q-.867-1.012-1.531-1.921-.68-.928-1.152-1.7a8.312,8.312,0,0,1-.649-1.226,1.289,1.289,0,0,1-.015-1.137,1.541,1.541,0,0,1,.909-.815.843.843,0,0,1,.581.053,1.779,1.779,0,0,1,.6.6,6.149,6.149,0,0,1,.476.759,24.073,24.073,0,0,0,1.5,2.27,17.586,17.586,0,0,0,1.828,2.174l1.617-1.7,1.936,1.841-1.617,1.7q.551.492,1.037.861a17.577,17.577,0,0,0,1.606,1.105q.641.377,1.114.607a6.628,6.628,0,0,0,.739.358,6.23,6.23,0,0,1,.557.3,4.612,4.612,0,0,1,.587.419,2.509,2.509,0,0,1,.452.491.725.725,0,0,1,.087.616m-5.188-17.182,7.21,6.855c.178.169.423.092.736-.235l.98-1.033-7.481-7.11,1.557-1.637,8.614,8.189a1,1,0,0,1,.039,1.6L140.286,38q-2.4,2.518-3.659,1.323l-6.218-5.913-1.137,1.2a.449.449,0,0,0,.008.72l7.051,6.706c.242.229.2.513-.119.851q-1.07,1.131-1.783.456l-7.384-7.018a2,2,0,0,1-.083-3.195Z" transform="translate(61.223 13.524)"/>
        <path id="패스_173" data-name="패스 173" d="M88.6,48.734l-2.59-2.865c-5.688-6.287-6.141.718-12.971-6.113-3.556-3.556-4.6-8.279-2.325-10.553s7-1.23,10.551,2.325c6.822,6.824-.145,7.313,6.065,12.927l3,2.713,1.84,1.664,13.778,12.461c2.243,2.027-1.12,5.392-3.148,3.147L90.432,50.759Z" transform="translate(35.148 14.158)" fill-rule="evenodd"/>
        <path id="패스_174" data-name="패스 174" d="M73.031,63.018a1.933,1.933,0,0,0,1.8.483,1.288,1.288,0,0,0,.441-.289L90.735,48.2l20.058-19.474a.021.021,0,0,1,.02-.02c.444-.525-.452-1.244-.9-.855L92.89,42.835l-.687.6L72.737,60.582c-.009.011-.02.011-.029.021a1.626,1.626,0,0,0,.322,2.415" transform="translate(36.555 14.025)"/>
        <path id="패스_175" data-name="패스 175" d="M75.1,65.7a1.928,1.928,0,0,0,1.819.414,1.268,1.268,0,0,0,.431-.306L92.234,50.218,111.542,30a.024.024,0,0,1,.018-.021c.425-.541-.5-1.224-.932-.821L94.185,44.778l-.664.628-18.8,17.87c-.009.011-.018.011-.027.021a1.627,1.627,0,0,0,.413,2.4" transform="translate(37.575 14.682)"/>
      </g>
    </g>
  </g>
</svg>
