<svg xmlns="http://www.w3.org/2000/svg" xmlns:xlink="http://www.w3.org/1999/xlink" width="500" height="400.538" viewBox="0 0 500 400.538">
  <defs>
    <clipPath id="clip-path">
      <rect id="사각형_221" data-name="사각형 221" width="500" height="400.538" transform="translate(-0.001)" fill="none"/>
    </clipPath>
  </defs>
  <g id="하트동원_logo" transform="translate(0.001)" clip-path="url(#clip-path)">
    <g id="그룹_250" data-name="그룹 250" transform="translate(96.663 90)">
      <path id="패스_408" data-name="패스 408" d="M41.823,36.18c21.7-6.066,38.56-.308,60.034,8.409,21.981,8.9,32.206,9.888,40.687,10.09,17.561.407,28.859-5.332,42.251-14.124a127.02,127.02,0,0,1,24.254-12.8V27.73c-8,2.322-23.025,7.444-48.625.251C135.335,20.92,112.409-1.214,72.984.052,25.012,1.588-8.775,43.805,2.016,102.477c-4.458-43.791,23.638-61.839,39.806-66.3" transform="translate(0 0)" fill="#64a51c"/>
      <g id="그룹_255" data-name="그룹 255" transform="translate(1.543 22.447)">
        <path id="패스_409" data-name="패스 409" d="M238.647,22.56c-8.359.116-25.378-.665-53.846,18.1-13.392,8.792-24.689,14.531-42.251,14.124-8.481-.2-18.706-1.194-40.687-10.09C80.39,35.979,63.526,30.22,41.83,36.286c-16.168,4.458-44.264,22.506-39.806,66.3.377,2.667.882,5.387,1.462,8.149,11.946,55.679,63.585,111.461,150.665,111.1,90.156-.391,137.561-52.255,149.346-108.031,13.029-61.4-26.912-91.794-64.85-91.239" transform="translate(-1.551 -22.553)" fill="#c4000b"/>
        <path id="패스_410" data-name="패스 410" d="M186.959,171.5a21.317,21.317,0,0,1-8.716,8.4,28.154,28.154,0,0,1-25.2,0,21.445,21.445,0,0,1-8.724-8.4,28.225,28.225,0,0,1-.042-26.568,22.133,22.133,0,0,1,8.766-8.444,26.641,26.641,0,0,1,12.622-2.941,25.844,25.844,0,0,1,12.519,2.975,21.542,21.542,0,0,1,8.779,8.41,28.467,28.467,0,0,1,0,26.568M174.2,145.376a10.492,10.492,0,0,0-8.541-4.7,10.633,10.633,0,0,0-8.647,4.7c-2.264,3.1-3.473,7.367-3.606,12.859.133,5.437,1.342,9.686,3.606,12.805a10.547,10.547,0,0,0,8.647,4.725,10.408,10.408,0,0,0,8.541-4.725c2.314-3.119,3.509-7.368,3.613-12.805-.1-5.492-1.3-9.757-3.613-12.859" transform="translate(-2.202 -23.074)" fill="#fff"/>
        <path id="패스_411" data-name="패스 411" d="M134.043,135.108h0c-3.075,0-4.116,2.083-4.626,3.935-.559,2.16-8.053,29.81-8.053,29.81l-8.891-33.746h-3.222a9.479,9.479,0,0,0-5.15,1.147,6.841,6.841,0,0,0-2.706,4.1c-.441,1.558-7.459,28.5-7.459,28.5L83.4,135.108H78a5,5,0,0,0-3.941,1.329,4.2,4.2,0,0,0-.889,4.341c.455,1.272,13.84,40.455,13.84,40.455h6.158a7.17,7.17,0,0,0,7.194-5.325c.438-1.643,5.841-21.823,5.841-21.823l8.227,27.148h6.143a7.028,7.028,0,0,0,7.151-5.325l11.54-40.8Z" transform="translate(-1.882 -23.081)" fill="#fff"/>
        <path id="패스_412" data-name="패스 412" d="M161.248,110.976a21.451,21.451,0,0,1-8.724,8.408,28.162,28.162,0,0,1-25.176,0,21.875,21.875,0,0,1-8.758-8.408,28.367,28.367,0,0,1-.035-26.539,22.254,22.254,0,0,1,8.792-8.48,26.61,26.61,0,0,1,12.583-2.934,25.915,25.915,0,0,1,12.539,2.992,21.2,21.2,0,0,1,8.779,8.422,28.325,28.325,0,0,1,0,26.539M148.514,84.855a10.23,10.23,0,0,0-17.209,0c-2.306,3.111-3.468,7.355-3.614,12.827.146,5.482,1.308,9.744,3.614,12.84a10.205,10.205,0,0,0,17.209,0c2.278-3.1,3.48-7.358,3.578-12.84-.1-5.471-1.3-9.715-3.578-12.827" transform="translate(-2.079 -22.79)" fill="#fff"/>
        <path id="패스_413" data-name="패스 413" d="M44.232,103.081c1.092,1.6,8.374,12.9,26.042,13.162,20.242.274,27.644-15.8,24.353-30.138-2.8-12-14.036-17.537-26.658-15.915a2.222,2.222,0,0,0-2.18,2.437c.041,1.853.99,31.558.99,31.558a15.577,15.577,0,0,1-4.277,2.986c-2.377,1.132-4.531.977-4.879-.992-.377-1.965-5.444-30.257-5.828-32.461-.427-2.243-.952-4.045,1.342-6.011,4.208-3.606,11.169-6.033,16.573-6.717,15.789-2,30.635,5.933,36.317,19.53a31.49,31.49,0,0,1-12.7,39.622c-11.583,6.8-27.217,6.556-37.324.03-3.523-2.239-10.639-7.4-14.261-15.8-.647-1.5-.572-2.2.1-2.6.476-.26,1.271-.407,2.39,1.3" transform="translate(-1.735 -22.732)" fill="#fff"/>
        <path id="패스_414" data-name="패스 414" d="M236.173,135.108a4.479,4.479,0,0,0-4.668,4.538v24.713l-25.666-29.251H202.65c-3.514,0-4.906,2.432-4.906,4.606v41.518h3.481a4.49,4.49,0,0,0,4.614-4.53V152l25.666,29.23h3.6a4.449,4.449,0,0,0,4.529-4.53V135.108Z" transform="translate(-2.471 -23.081)" fill="#fff"/>
        <path id="패스_415" data-name="패스 415" d="M210.451,74.553a4.425,4.425,0,0,0-4.615,4.545v24.7L180.12,74.553h-3.2a4.478,4.478,0,0,0-4.879,4.612v41.47h3.468a4.436,4.436,0,0,0,4.611-4.516V91.426l25.716,29.209h3.553a4.4,4.4,0,0,0,4.515-4.516V74.553Z" transform="translate(-2.347 -22.797)" fill="#fff"/>
        <path id="패스_416" data-name="패스 416" d="M258.072,97.982a4.459,4.459,0,0,0-4.441,4.633v10.521a14.2,14.2,0,0,1-7.545,2.13,10.511,10.511,0,0,1-8.559-4.605c-2.4-3.335-3.7-7.417-3.7-12.981s1.335-9.658,3.744-12.98a11.007,11.007,0,0,1,9.187-4.646c4.053,0,7.248,2.39,8.96,3.362a8.272,8.272,0,0,0,3.835,1.117c2.846.1,5.168-3.209,5.168-3.209-.558-.585-6.107-8.3-18.632-8.3a26.368,26.368,0,0,0-12.612,2.959,22.106,22.106,0,0,0-8.778,8.456,28.439,28.439,0,0,0,.042,26.539,21.605,21.605,0,0,0,8.737,8.394,27.2,27.2,0,0,0,12.612,2.97,30.2,30.2,0,0,0,14.437-3.6,9.236,9.236,0,0,0,4.237-7.456v-13.3Z" transform="translate(-2.579 -22.79)" fill="#fff"/>
      </g>
    </g>
  </g>
</svg>
